<?xml version="1.0" encoding="UTF-8"?>
<!DOCTYPE svg PUBLIC "-//W3C//DTD SVG 1.1//EN" "http://www.w3.org/Graphics/SVG/1.1/DTD/svg11.dtd">
<!-- Creator: CorelDRAW X8 -->
<svg xmlns="http://www.w3.org/2000/svg" xml:space="preserve" width="0.300953in" height="0.300953in" version="1.1" style="shape-rendering:geometricPrecision; text-rendering:geometricPrecision; image-rendering:optimizeQuality; fill-rule:evenodd; clip-rule:evenodd"
viewBox="0 0 37 37"
 xmlns:xlink="http://www.w3.org/1999/xlink">
 <defs>
  <style type="text/css">
   <![CDATA[
    .str0 {stroke:white;stroke-width:2.42934}
    .fil1 {fill:none}
    .fil0 {fill:white}
   ]]>
  </style>
 </defs>
 <g id="Layer_x0020_1">
  <metadata id="CorelCorpID_0Corel-Layer"/>
  <g id="_1739883748608">
   <path class="fil0" d="M19 29c-3,0 -6,-1 -8,-3 -1,0 -1,0 -1,-2 1,-2 2,-3 3,-4 4,-1 2,0 5,0 4,0 3,-1 4,0 3,1 4,1 5,4 0,1 0,1 -1,2 -2,2 -4,3 -7,3zm-1 -21c7,-1 8,10 1,11 -7,1 -8,-10 -1,-11zm5 11c1,-1 4,-4 2,-8 -3,-6 -10,-6 -13,0 0,1 0,3 0,5 1,1 1,2 2,3 -1,0 -2,0 -2,1 -3,1 -4,5 -2,6 2,2 4,4 9,4 3,0 7,-2 9,-4 1,-1 0,-4 -1,-5 -1,-1 -2,-2 -4,-2z"/>
   <circle class="fil1 str0" cx="19" cy="19" r="17"/>
  </g>
 </g>
</svg>
