<svg id="Capa_1" enable-background="new 0 0 512 512" height="512" viewBox="0 0 512 512" width="512" xmlns="http://www.w3.org/2000/svg"><g><g><path d="m504.5 113.566h-497v-62.63c0-11.158 9.045-20.203 20.203-20.203h456.593c11.158 0 20.203 9.045 20.203 20.203v62.63z" fill="#80b4fb"/></g><g><path d="m484.297 30.732h-30.305c11.158 0 20.203 9.045 20.203 20.203v62.63h30.305v-62.63c0-11.157-9.045-20.203-20.203-20.203z" fill="#61a2f9"/></g><g><path d="m7.5 113.566h497v347.496c0 11.158-9.045 20.203-20.203 20.203h-456.594c-11.158 0-20.203-9.045-20.203-20.203z" fill="#e4f6ff"/></g><g><path d="m474.195 113.566v347.496c0 11.158-9.045 20.203-20.203 20.203h30.305c11.158 0 20.203-9.045 20.203-20.203v-347.496z" fill="#b9e4ef"/></g><g><g><circle cx="256" cy="297.415" fill="#a2f4c1" r="151.524"/></g><g><path d="m352.011 180.191c21.433 26.138 34.3 59.571 34.3 96.011 0 83.685-67.84 151.524-151.524 151.524-36.44 0-69.872-12.867-96.011-34.3 27.789 33.888 69.979 55.514 117.224 55.514 83.685 0 151.524-67.84 151.524-151.524 0-47.245-21.625-89.436-55.513-117.225z" fill="#78d0b1"/></g><g><circle cx="256" cy="297.415" fill="#57988b" r="119.199"/></g></g><g><g><g><path d="m231.758 358.025c-5.268 0-10.527-2.047-14.488-6.12l-35.356-36.366c-7.778-8-7.598-20.791.402-28.569s20.791-7.597 28.569.402l21.347 21.956 65.32-62.839c8.041-7.735 20.83-7.488 28.566.552 7.736 8.042 7.488 20.831-.553 28.567l-79.803 76.772c-3.916 3.77-8.964 5.645-14.004 5.645z" fill="#ffe07d"/></g></g></g><g><path d="m512 50.935c0-15.275-12.428-27.703-27.703-27.703h-456.594c-15.275 0-27.703 12.428-27.703 27.703v107.134c0 4.143 3.358 7.5 7.5 7.5s7.5-3.357 7.5-7.5v-37h482v251.41c0 4.143 3.358 7.5 7.5 7.5s7.5-3.357 7.5-7.5zm-497 55.134v-55.134c0-7.005 5.699-12.703 12.703-12.703h456.594c7.004 0 12.703 5.698 12.703 12.703v55.134z"/><circle cx="438.839" cy="72.149" r="12.122"/><ellipse cx="397.423" cy="72.149" rx="12.122" ry="12.122" transform="matrix(.998 -.071 .071 .998 -4.115 28.355)"/><circle cx="356.006" cy="72.149" r="12.122"/><path d="m504.5 399.979c-4.142 0-7.5 3.357-7.5 7.5v53.579c0 7.008-5.697 12.71-12.7 12.71h-456.6c-7.003 0-12.7-5.702-12.7-12.71v-267.989c0-4.143-3.358-7.5-7.5-7.5s-7.5 3.357-7.5 7.5v267.989c0 15.279 12.426 27.71 27.7 27.71h456.6c15.274 0 27.7-12.431 27.7-27.71v-53.579c0-4.143-3.358-7.5-7.5-7.5z"/><path d="m256 138.391c-87.687 0-159.024 71.338-159.024 159.024s71.337 159.025 159.024 159.025 159.024-71.338 159.024-159.024-71.337-159.025-159.024-159.025zm0 303.049c-79.416 0-144.024-64.609-144.024-144.024s64.608-144.025 144.024-144.025 144.024 64.609 144.024 144.025-64.608 144.024-144.024 144.024z"/><path d="m256 170.716c-69.862 0-126.699 56.837-126.699 126.699s56.837 126.7 126.699 126.7 126.699-56.837 126.699-126.699-56.837-126.7-126.699-126.7zm0 238.399c-61.591 0-111.699-50.108-111.699-111.699s50.108-111.7 111.699-111.7 111.699 50.108 111.699 111.699-50.108 111.7-111.699 111.7z"/><path d="m292.35 241.084-16.95 16.31c-2.985 2.872-3.076 7.62-.204 10.604 2.872 2.985 7.62 3.076 10.604.204l16.948-16.308c5.051-4.855 13.112-4.699 17.962.338 4.854 5.056 4.701 13.118-.34 17.971l-79.817 76.776c-2.373 2.288-5.496 3.549-8.793 3.549-3.462 0-6.699-1.367-9.112-3.849l-35.357-36.367c-4.879-5.023-4.763-13.084.258-17.968 5.021-4.883 13.08-4.771 17.963.25l21.34 21.96c2.877 2.961 7.605 3.04 10.579.179l23.15-22.271c2.985-2.872 3.077-7.62.205-10.604-2.871-2.986-7.619-3.077-10.604-.206l-17.772 17.098-16.142-16.61c-10.65-10.952-28.224-11.197-39.176-.549-10.947 10.647-11.199 28.22-.558 39.176l35.362 36.371c5.264 5.411 12.319 8.391 19.865 8.391 7.202 0 14.023-2.753 19.199-7.745l79.812-76.771c10.994-10.584 11.334-28.155.752-39.175-10.591-11.003-28.164-11.341-39.174-.754z"/><path d="m39.825 424.115h36.366c4.142 0 7.5-3.357 7.5-7.5s-3.358-7.5-7.5-7.5h-36.366c-4.142 0-7.5 3.357-7.5 7.5s3.358 7.5 7.5 7.5z"/><path d="m39.825 456.44h74.752c4.142 0 7.5-3.357 7.5-7.5s-3.358-7.5-7.5-7.5h-74.752c-4.142 0-7.5 3.357-7.5 7.5s3.358 7.5 7.5 7.5z"/><path d="m472.175 424.115c4.142 0 7.5-3.357 7.5-7.5s-3.358-7.5-7.5-7.5h-36.366c-4.142 0-7.5 3.357-7.5 7.5s3.358 7.5 7.5 7.5z"/><path d="m389.923 448.94c0 4.143 3.358 7.5 7.5 7.5h74.752c4.142 0 7.5-3.357 7.5-7.5s-3.358-7.5-7.5-7.5h-74.752c-4.142 0-7.5 3.357-7.5 7.5z"/></g></g></svg>